<?xml version="1.0" encoding="UTF-8" standalone="no"?>
<!DOCTYPE svg PUBLIC "-//W3C//DTD SVG 1.1//EN"
 "http://www.w3.org/Graphics/SVG/1.1/DTD/svg11.dtd">
<!-- Generated by graphviz version 2.47.3 (20210619.1520)
 -->
<!-- Title: fsm Pages: 1 -->
<svg width="1557pt" height="667pt"
 viewBox="0.00 0.00 1556.50 667.00" xmlns="http://www.w3.org/2000/svg" xmlns:xlink="http://www.w3.org/1999/xlink">
<g id="graph0" class="graph" transform="scale(1 1) rotate(0) translate(4 663)">
<title>fsm</title>
<polygon fill="white" stroke="transparent" points="-4,4 -4,-663 1552.5,-663 1552.5,4 -4,4"/>
<!-- on_pins_support -->
<g id="node1" class="node">
<title>on_pins_support</title>
<path fill="red" stroke="black" d="M503,-659C503,-659 348,-659 348,-659 342,-659 336,-653 336,-647 336,-647 336,-635 336,-635 336,-629 342,-623 348,-623 348,-623 503,-623 503,-623 509,-623 515,-629 515,-635 515,-635 515,-647 515,-647 515,-653 509,-659 503,-659"/>
<text text-anchor="start" x="367" y="-644.8" font-family="Times New Roman,serif" font-size="14.00" fill="white"> </text>
<text text-anchor="start" x="371" y="-644.8" font-family="Times New Roman,serif" font-weight="bold" font-size="14.00" fill="white"> on_pins_support </text>
<text text-anchor="start" x="480" y="-644.8" font-family="Times New Roman,serif" font-size="14.00" fill="white"> </text>
<text text-anchor="start" x="344" y="-630.8" font-family="Times New Roman,serif" font-size="14.00" fill="white"> На цапфах нижнего этажа </text>
</g>
<!-- lifting_up_frame_cycle -->
<g id="node2" class="node">
<title>lifting_up_frame_cycle</title>
<path fill="none" stroke="black" d="M161,-572C161,-572 12,-572 12,-572 6,-572 0,-566 0,-560 0,-560 0,-548 0,-548 0,-542 6,-536 12,-536 12,-536 161,-536 161,-536 167,-536 173,-542 173,-548 173,-548 173,-560 173,-560 173,-566 167,-572 161,-572"/>
<text text-anchor="start" x="8.5" y="-557.8" font-family="Times New Roman,serif" font-size="14.00"> </text>
<text text-anchor="start" x="12.5" y="-557.8" font-family="Times New Roman,serif" font-weight="bold" font-size="14.00"> lifting_up_frame_cycle </text>
<text text-anchor="start" x="160.5" y="-557.8" font-family="Times New Roman,serif" font-size="14.00"> </text>
<text text-anchor="start" x="8" y="-543.8" font-family="Times New Roman,serif" font-size="14.00"> Подъем на одну ступень </text>
</g>
<!-- on_pins_support&#45;&gt;lifting_up_frame_cycle -->
<g id="edge1" class="edge">
<title>on_pins_support&#45;&gt;lifting_up_frame_cycle</title>
<path fill="none" stroke="black" d="M335.77,-634.23C267.41,-628.81 179.58,-619.37 146.5,-605 132.82,-599.06 119.83,-589 109.45,-579.45"/>
<polygon fill="black" stroke="black" points="111.68,-576.74 102.05,-572.32 106.83,-581.78 111.68,-576.74"/>
<text text-anchor="middle" x="184" y="-593.8" font-family="Times New Roman,serif" font-size="14.00"> liftUpFrame </text>
</g>
<!-- lift_up_frame_by_pressure -->
<g id="node3" class="node">
<title>lift_up_frame_by_pressure</title>
<path fill="none" stroke="black" d="M347.5,-572C347.5,-572 203.5,-572 203.5,-572 197.5,-572 191.5,-566 191.5,-560 191.5,-560 191.5,-548 191.5,-548 191.5,-542 197.5,-536 203.5,-536 203.5,-536 347.5,-536 347.5,-536 353.5,-536 359.5,-542 359.5,-548 359.5,-548 359.5,-560 359.5,-560 359.5,-566 353.5,-572 347.5,-572"/>
<text text-anchor="middle" x="275.5" y="-550.3" font-family="Times New Roman,serif" font-size="14.00">lift_up_frame_by_pressure</text>
</g>
<!-- on_pins_support&#45;&gt;lift_up_frame_by_pressure -->
<g id="edge2" class="edge">
<title>on_pins_support&#45;&gt;lift_up_frame_by_pressure</title>
<path fill="none" stroke="black" d="M335.83,-635.09C290.69,-630.55 242.58,-621.81 228.5,-605 221.01,-596.07 226.11,-586.66 235.28,-578.44"/>
<polygon fill="black" stroke="black" points="237.61,-581.06 243.33,-572.14 233.3,-575.55 237.61,-581.06"/>
<text text-anchor="middle" x="301" y="-593.8" font-family="Times New Roman,serif" font-size="14.00"> prepareToLinkMounting </text>
</g>
<!-- holding_frame_cycle -->
<g id="node4" class="node">
<title>holding_frame_cycle</title>
<path fill="none" stroke="black" d="M639,-572C639,-572 504,-572 504,-572 498,-572 492,-566 492,-560 492,-560 492,-548 492,-548 492,-542 498,-536 504,-536 504,-536 639,-536 639,-536 645,-536 651,-542 651,-548 651,-548 651,-560 651,-560 651,-566 645,-572 639,-572"/>
<text text-anchor="start" x="500" y="-557.8" font-family="Times New Roman,serif" font-size="14.00"> </text>
<text text-anchor="start" x="504" y="-557.8" font-family="Times New Roman,serif" font-weight="bold" font-size="14.00"> holding_frame_cycle </text>
<text text-anchor="start" x="639" y="-557.8" font-family="Times New Roman,serif" font-size="14.00"> </text>
<text text-anchor="start" x="515.5" y="-543.8" font-family="Times New Roman,serif" font-size="14.00"> Удержание рамы </text>
</g>
<!-- on_pins_support&#45;&gt;holding_frame_cycle -->
<g id="edge3" class="edge">
<title>on_pins_support&#45;&gt;holding_frame_cycle</title>
<path fill="none" stroke="black" d="M455.05,-622.8C477.61,-609.66 508.87,-591.46 533.33,-577.22"/>
<polygon fill="black" stroke="black" points="535.12,-580.23 542,-572.18 531.6,-574.18 535.12,-580.23"/>
<text text-anchor="middle" x="541.5" y="-593.8" font-family="Times New Roman,serif" font-size="14.00"> holdFrame </text>
</g>
<!-- lifting_down_frame_cycle -->
<g id="node5" class="node">
<title>lifting_down_frame_cycle</title>
<path fill="none" stroke="black" d="M847.5,-572C847.5,-572 681.5,-572 681.5,-572 675.5,-572 669.5,-566 669.5,-560 669.5,-560 669.5,-548 669.5,-548 669.5,-542 675.5,-536 681.5,-536 681.5,-536 847.5,-536 847.5,-536 853.5,-536 859.5,-542 859.5,-548 859.5,-548 859.5,-560 859.5,-560 859.5,-566 853.5,-572 847.5,-572"/>
<text text-anchor="start" x="677.5" y="-557.8" font-family="Times New Roman,serif" font-size="14.00"> </text>
<text text-anchor="start" x="681.5" y="-557.8" font-family="Times New Roman,serif" font-weight="bold" font-size="14.00"> lifting_down_frame_cycle </text>
<text text-anchor="start" x="847.5" y="-557.8" font-family="Times New Roman,serif" font-size="14.00"> </text>
<text text-anchor="start" x="691" y="-543.8" font-family="Times New Roman,serif" font-size="14.00"> Спуск на одну ступень </text>
</g>
<!-- on_pins_support&#45;&gt;lifting_down_frame_cycle -->
<g id="edge4" class="edge">
<title>on_pins_support&#45;&gt;lifting_down_frame_cycle</title>
<path fill="none" stroke="black" d="M515.28,-638.79C568.36,-635.52 636.03,-626.82 692.5,-605 708.69,-598.75 724.74,-588.14 737.56,-578.31"/>
<polygon fill="black" stroke="black" points="739.84,-580.97 745.49,-572.01 735.49,-575.49 739.84,-580.97"/>
<text text-anchor="middle" x="765" y="-593.8" font-family="Times New Roman,serif" font-size="14.00"> liftDownFrame </text>
</g>
<!-- lifting_up_frame_cycle&#45;&gt;on_pins_support -->
<g id="edge5" class="edge">
<title>lifting_up_frame_cycle&#45;&gt;on_pins_support</title>
<path fill="none" stroke="blue" d="M89.14,-572.12C91.8,-583.3 97.09,-597.23 107.5,-605 141.06,-630.06 245.42,-637.74 325.53,-639.82"/>
<polygon fill="blue" stroke="blue" points="325.59,-643.32 335.67,-640.06 325.76,-636.32 325.59,-643.32"/>
<text text-anchor="middle" x="113.5" y="-593.8" font-family="Times New Roman,serif" font-size="14.00"> &#160;&#160;</text>
</g>
<!-- ready_to_link_mounting -->
<g id="node6" class="node">
<title>ready_to_link_mounting</title>
<path fill="none" stroke="black" d="M345.5,-485C345.5,-485 217.5,-485 217.5,-485 211.5,-485 205.5,-479 205.5,-473 205.5,-473 205.5,-461 205.5,-461 205.5,-455 211.5,-449 217.5,-449 217.5,-449 345.5,-449 345.5,-449 351.5,-449 357.5,-455 357.5,-461 357.5,-461 357.5,-473 357.5,-473 357.5,-479 351.5,-485 345.5,-485"/>
<text text-anchor="middle" x="281.5" y="-463.3" font-family="Times New Roman,serif" font-size="14.00">ready_to_link_mounting</text>
</g>
<!-- lift_up_frame_by_pressure&#45;&gt;ready_to_link_mounting -->
<g id="edge6" class="edge">
<title>lift_up_frame_by_pressure&#45;&gt;ready_to_link_mounting</title>
<path fill="none" stroke="blue" d="M276.71,-535.8C277.54,-524.16 278.64,-508.55 279.58,-495.24"/>
<polygon fill="blue" stroke="blue" points="283.07,-495.4 280.29,-485.18 276.09,-494.9 283.07,-495.4"/>
<text text-anchor="middle" x="285.5" y="-506.8" font-family="Times New Roman,serif" font-size="14.00"> &#160;&#160;</text>
</g>
<!-- holding_frame -->
<g id="node8" class="node">
<title>holding_frame</title>
<path fill="none" stroke="black" d="M839,-485C839,-485 766,-485 766,-485 760,-485 754,-479 754,-473 754,-473 754,-461 754,-461 754,-455 760,-449 766,-449 766,-449 839,-449 839,-449 845,-449 851,-455 851,-461 851,-461 851,-473 851,-473 851,-479 845,-485 839,-485"/>
<text text-anchor="middle" x="802.5" y="-463.3" font-family="Times New Roman,serif" font-size="14.00">holding_frame</text>
</g>
<!-- holding_frame_cycle&#45;&gt;holding_frame -->
<g id="edge9" class="edge">
<title>holding_frame_cycle&#45;&gt;holding_frame</title>
<path fill="none" stroke="blue" d="M617.97,-535.9C655.01,-522.27 707.02,-503.13 746.39,-488.65"/>
<polygon fill="blue" stroke="blue" points="747.93,-491.81 756.11,-485.07 745.51,-485.24 747.93,-491.81"/>
<text text-anchor="middle" x="707.5" y="-506.8" font-family="Times New Roman,serif" font-size="14.00"> &#160;&#160;</text>
</g>
<!-- lifting_down_frame_cycle&#45;&gt;on_pins_support -->
<g id="edge26" class="edge">
<title>lifting_down_frame_cycle&#45;&gt;on_pins_support</title>
<path fill="none" stroke="blue" d="M703.84,-572.06C667.8,-582.03 621.15,-594.64 579.5,-605 558.04,-610.34 534.82,-615.78 513.07,-620.74"/>
<polygon fill="blue" stroke="blue" points="512.18,-617.36 503.2,-622.98 513.73,-624.18 512.18,-617.36"/>
<text text-anchor="middle" x="642.5" y="-593.8" font-family="Times New Roman,serif" font-size="14.00"> &#160;&#160;</text>
</g>
<!-- link_mounting_to_init -->
<g id="node7" class="node">
<title>link_mounting_to_init</title>
<path fill="none" stroke="black" d="M364.5,-398C364.5,-398 250.5,-398 250.5,-398 244.5,-398 238.5,-392 238.5,-386 238.5,-386 238.5,-374 238.5,-374 238.5,-368 244.5,-362 250.5,-362 250.5,-362 364.5,-362 364.5,-362 370.5,-362 376.5,-368 376.5,-374 376.5,-374 376.5,-386 376.5,-386 376.5,-392 370.5,-398 364.5,-398"/>
<text text-anchor="middle" x="307.5" y="-376.3" font-family="Times New Roman,serif" font-size="14.00">link_mounting_to_init</text>
</g>
<!-- ready_to_link_mounting&#45;&gt;link_mounting_to_init -->
<g id="edge7" class="edge">
<title>ready_to_link_mounting&#45;&gt;link_mounting_to_init</title>
<path fill="none" stroke="black" d="M284.48,-448.66C286.36,-438.94 289.08,-426.66 292.5,-416 293.39,-413.23 294.42,-410.37 295.51,-407.54"/>
<polygon fill="black" stroke="black" points="298.79,-408.78 299.36,-398.2 292.32,-406.11 298.79,-408.78"/>
<text text-anchor="middle" x="333" y="-419.8" font-family="Times New Roman,serif" font-size="14.00"> releaseFrame </text>
</g>
<!-- link_mounting_to_init&#45;&gt;on_pins_support -->
<g id="edge8" class="edge">
<title>link_mounting_to_init&#45;&gt;on_pins_support</title>
<path fill="none" stroke="blue" d="M352.8,-398.05C360.68,-402.81 368.07,-408.72 373.5,-416 399.11,-450.34 399.27,-563.94 411.5,-605 412.32,-607.76 413.28,-610.61 414.29,-613.44"/>
<polygon fill="blue" stroke="blue" points="411.03,-614.7 417.89,-622.77 417.56,-612.18 411.03,-614.7"/>
<text text-anchor="middle" x="405.5" y="-506.8" font-family="Times New Roman,serif" font-size="14.00"> &#160;&#160;</text>
</g>
<!-- prepareing_to_lifting_bottom_frame_cycle -->
<g id="node9" class="node">
<title>prepareing_to_lifting_bottom_frame_cycle</title>
<path fill="none" stroke="black" d="M1263,-398C1263,-398 994,-398 994,-398 988,-398 982,-392 982,-386 982,-386 982,-374 982,-374 982,-368 988,-362 994,-362 994,-362 1263,-362 1263,-362 1269,-362 1275,-368 1275,-374 1275,-374 1275,-386 1275,-386 1275,-392 1269,-398 1263,-398"/>
<text text-anchor="start" x="990" y="-383.8" font-family="Times New Roman,serif" font-size="14.00"> </text>
<text text-anchor="start" x="994" y="-383.8" font-family="Times New Roman,serif" font-weight="bold" font-size="14.00"> prepareing_to_lifting_bottom_frame_cycle </text>
<text text-anchor="start" x="1263" y="-383.8" font-family="Times New Roman,serif" font-size="14.00"> </text>
<text text-anchor="start" x="1124.5" y="-369.8" font-family="Times New Roman,serif" font-size="14.00"> &#160;</text>
</g>
<!-- holding_frame&#45;&gt;prepareing_to_lifting_bottom_frame_cycle -->
<g id="edge10" class="edge">
<title>holding_frame&#45;&gt;prepareing_to_lifting_bottom_frame_cycle</title>
<path fill="none" stroke="black" d="M851.15,-457.92C886.47,-451.65 935.27,-442.17 977.5,-431 1009.26,-422.6 1044.12,-411.21 1072.33,-401.42"/>
<polygon fill="black" stroke="black" points="1073.73,-404.64 1082.01,-398.03 1071.42,-398.03 1073.73,-404.64"/>
<text text-anchor="middle" x="1117.5" y="-419.8" font-family="Times New Roman,serif" font-size="14.00"> prepareToLiftingBottomFrame </text>
</g>
<!-- prepareing_to_top_frame_moveing_vertical -->
<g id="node10" class="node">
<title>prepareing_to_top_frame_moveing_vertical</title>
<path fill="none" stroke="black" d="M743,-398C743,-398 466,-398 466,-398 460,-398 454,-392 454,-386 454,-386 454,-374 454,-374 454,-368 460,-362 466,-362 466,-362 743,-362 743,-362 749,-362 755,-368 755,-374 755,-374 755,-386 755,-386 755,-392 749,-398 743,-398"/>
<text text-anchor="start" x="462" y="-383.8" font-family="Times New Roman,serif" font-size="14.00"> </text>
<text text-anchor="start" x="466" y="-383.8" font-family="Times New Roman,serif" font-weight="bold" font-size="14.00"> prepareing_to_top_frame_moveing_vertical </text>
<text text-anchor="start" x="743" y="-383.8" font-family="Times New Roman,serif" font-size="14.00"> </text>
<text text-anchor="start" x="600.5" y="-369.8" font-family="Times New Roman,serif" font-size="14.00"> &#160;</text>
</g>
<!-- holding_frame&#45;&gt;prepareing_to_top_frame_moveing_vertical -->
<g id="edge11" class="edge">
<title>holding_frame&#45;&gt;prepareing_to_top_frame_moveing_vertical</title>
<path fill="none" stroke="black" d="M753.59,-462.32C706.23,-457.79 638.83,-448.45 619.5,-431 612.99,-425.13 609.26,-416.56 607.14,-408.17"/>
<polygon fill="black" stroke="black" points="610.56,-407.4 605.27,-398.22 603.68,-408.69 610.56,-407.4"/>
<text text-anchor="middle" x="707" y="-419.8" font-family="Times New Roman,serif" font-size="14.00"> prepareToTopFrameMoveing </text>
</g>
<!-- horizontal_moveing_cycle -->
<g id="node11" class="node">
<title>horizontal_moveing_cycle</title>
<path fill="none" stroke="black" d="M951.5,-398C951.5,-398 785.5,-398 785.5,-398 779.5,-398 773.5,-392 773.5,-386 773.5,-386 773.5,-374 773.5,-374 773.5,-368 779.5,-362 785.5,-362 785.5,-362 951.5,-362 951.5,-362 957.5,-362 963.5,-368 963.5,-374 963.5,-374 963.5,-386 963.5,-386 963.5,-392 957.5,-398 951.5,-398"/>
<text text-anchor="start" x="781.5" y="-383.8" font-family="Times New Roman,serif" font-size="14.00"> </text>
<text text-anchor="start" x="785.5" y="-383.8" font-family="Times New Roman,serif" font-weight="bold" font-size="14.00"> horizontal_moveing_cycle </text>
<text text-anchor="start" x="951.5" y="-383.8" font-family="Times New Roman,serif" font-size="14.00"> </text>
<text text-anchor="start" x="784" y="-369.8" font-family="Times New Roman,serif" font-size="14.00"> Смещение по горизонтали </text>
</g>
<!-- holding_frame&#45;&gt;horizontal_moveing_cycle -->
<g id="edge12" class="edge">
<title>holding_frame&#45;&gt;horizontal_moveing_cycle</title>
<path fill="none" stroke="black" d="M798.71,-448.59C797.45,-438.37 797.62,-425.63 803.5,-416 806.23,-411.53 809.74,-407.6 813.71,-404.15"/>
<polygon fill="black" stroke="black" points="815.93,-406.87 821.85,-398.08 811.74,-401.26 815.93,-406.87"/>
<text text-anchor="middle" x="880.5" y="-419.8" font-family="Times New Roman,serif" font-size="14.00"> horizontalMoveTopFrame </text>
</g>
<!-- on_external_support -->
<g id="node12" class="node">
<title>on_external_support</title>
<path fill="none" stroke="black" d="M1123,-311C1123,-311 944,-311 944,-311 938,-311 932,-305 932,-299 932,-299 932,-287 932,-287 932,-281 938,-275 944,-275 944,-275 1123,-275 1123,-275 1129,-275 1135,-281 1135,-287 1135,-287 1135,-299 1135,-299 1135,-305 1129,-311 1123,-311"/>
<text text-anchor="start" x="962.5" y="-296.8" font-family="Times New Roman,serif" font-size="14.00"> </text>
<text text-anchor="start" x="966.5" y="-296.8" font-family="Times New Roman,serif" font-weight="bold" font-size="14.00"> on_external_support </text>
<text text-anchor="start" x="1100.5" y="-296.8" font-family="Times New Roman,serif" font-size="14.00"> </text>
<text text-anchor="start" x="940" y="-282.8" font-family="Times New Roman,serif" font-size="14.00"> Упирается на колонны рамой </text>
</g>
<!-- prepareing_to_lifting_bottom_frame_cycle&#45;&gt;on_external_support -->
<g id="edge13" class="edge">
<title>prepareing_to_lifting_bottom_frame_cycle:s&#45;&gt;on_external_support:n</title>
<path fill="none" stroke="blue" d="M1128.5,-362C1128.5,-318.01 1048.45,-352.19 1035.31,-321.02"/>
<polygon fill="blue" stroke="blue" points="1038.72,-320.22 1033.5,-311 1031.84,-321.46 1038.72,-320.22"/>
<text text-anchor="middle" x="1124.5" y="-332.8" font-family="Times New Roman,serif" font-size="14.00"> &#160;&#160;</text>
</g>
<!-- prepareing_to_top_frame_moveing_vertical&#45;&gt;on_pins_support -->
<g id="edge14" class="edge">
<title>prepareing_to_top_frame_moveing_vertical&#45;&gt;on_pins_support</title>
<path fill="none" stroke="blue" d="M589.22,-398.41C565.07,-426.36 517.25,-483.43 482.5,-536 465.66,-561.47 449.21,-592.33 438.34,-613.79"/>
<polygon fill="blue" stroke="blue" points="435.11,-612.42 433.76,-622.93 441.37,-615.56 435.11,-612.42"/>
<text text-anchor="middle" x="511.5" y="-506.8" font-family="Times New Roman,serif" font-size="14.00"> &#160;&#160;</text>
</g>
<!-- horizontal_moveing_cycle&#45;&gt;holding_frame -->
<g id="edge25" class="edge">
<title>horizontal_moveing_cycle&#45;&gt;holding_frame</title>
<path fill="none" stroke="blue" d="M938.36,-398.07C956.83,-405.97 968.84,-416.81 957.5,-431 945.4,-446.13 899.93,-455.2 861.34,-460.29"/>
<polygon fill="blue" stroke="blue" points="860.67,-456.85 851.18,-461.57 861.54,-463.8 860.67,-456.85"/>
<text text-anchor="middle" x="967.5" y="-419.8" font-family="Times New Roman,serif" font-size="14.00"> &#160;&#160;</text>
</g>
<!-- pushing_in_crab_cycle -->
<g id="node13" class="node">
<title>pushing_in_crab_cycle</title>
<path fill="none" stroke="black" d="M1202.5,-224C1202.5,-224 1054.5,-224 1054.5,-224 1048.5,-224 1042.5,-218 1042.5,-212 1042.5,-212 1042.5,-200 1042.5,-200 1042.5,-194 1048.5,-188 1054.5,-188 1054.5,-188 1202.5,-188 1202.5,-188 1208.5,-188 1214.5,-194 1214.5,-200 1214.5,-200 1214.5,-212 1214.5,-212 1214.5,-218 1208.5,-224 1202.5,-224"/>
<text text-anchor="start" x="1050.5" y="-209.8" font-family="Times New Roman,serif" font-size="14.00"> </text>
<text text-anchor="start" x="1054.5" y="-209.8" font-family="Times New Roman,serif" font-weight="bold" font-size="14.00"> pushing_in_crab_cycle </text>
<text text-anchor="start" x="1202.5" y="-209.8" font-family="Times New Roman,serif" font-size="14.00"> </text>
<text text-anchor="start" x="1059.5" y="-195.8" font-family="Times New Roman,serif" font-size="14.00"> Задвигание лап краба </text>
</g>
<!-- on_external_support&#45;&gt;pushing_in_crab_cycle -->
<g id="edge15" class="edge">
<title>on_external_support&#45;&gt;pushing_in_crab_cycle</title>
<path fill="none" stroke="black" d="M1052.72,-274.8C1066.76,-262.24 1085.97,-245.05 1101.54,-231.12"/>
<polygon fill="black" stroke="black" points="1104.19,-233.45 1109.3,-224.18 1099.52,-228.24 1104.19,-233.45"/>
<text text-anchor="middle" x="1123" y="-245.8" font-family="Times New Roman,serif" font-size="14.00"> pushinCrab </text>
</g>
<!-- landing_bottom_frame_to_pins -->
<g id="node14" class="node">
<title>landing_bottom_frame_to_pins</title>
<path fill="none" stroke="black" d="M795,-224C795,-224 596,-224 596,-224 590,-224 584,-218 584,-212 584,-212 584,-200 584,-200 584,-194 590,-188 596,-188 596,-188 795,-188 795,-188 801,-188 807,-194 807,-200 807,-200 807,-212 807,-212 807,-218 801,-224 795,-224"/>
<text text-anchor="start" x="592" y="-209.8" font-family="Times New Roman,serif" font-size="14.00"> </text>
<text text-anchor="start" x="596" y="-209.8" font-family="Times New Roman,serif" font-weight="bold" font-size="14.00"> landing_bottom_frame_to_pins </text>
<text text-anchor="start" x="795" y="-209.8" font-family="Times New Roman,serif" font-size="14.00"> </text>
<text text-anchor="start" x="621" y="-195.8" font-family="Times New Roman,serif" font-size="14.00"> Посадка краба а цапфы </text>
</g>
<!-- on_external_support&#45;&gt;landing_bottom_frame_to_pins -->
<g id="edge16" class="edge">
<title>on_external_support&#45;&gt;landing_bottom_frame_to_pins</title>
<path fill="none" stroke="black" d="M931.87,-276.9C901.61,-271.57 868.52,-264.89 838.5,-257 808.03,-248.99 774.76,-237.53 747.99,-227.6"/>
<polygon fill="black" stroke="black" points="749.03,-224.25 738.44,-224.02 746.57,-230.81 749.03,-224.25"/>
<text text-anchor="middle" x="913" y="-245.8" font-family="Times New Roman,serif" font-size="14.00"> landBottomFrameToPins </text>
</g>
<!-- ready_to_lifting_bottom_frame -->
<g id="node15" class="node">
<title>ready_to_lifting_bottom_frame</title>
<path fill="none" stroke="black" d="M1310,-137C1310,-137 1111,-137 1111,-137 1105,-137 1099,-131 1099,-125 1099,-125 1099,-113 1099,-113 1099,-107 1105,-101 1111,-101 1111,-101 1310,-101 1310,-101 1316,-101 1322,-107 1322,-113 1322,-113 1322,-125 1322,-125 1322,-131 1316,-137 1310,-137"/>
<text text-anchor="start" x="1107" y="-122.8" font-family="Times New Roman,serif" font-size="14.00"> </text>
<text text-anchor="start" x="1111" y="-122.8" font-family="Times New Roman,serif" font-weight="bold" font-size="14.00"> ready_to_lifting_bottom_frame </text>
<text text-anchor="start" x="1310" y="-122.8" font-family="Times New Roman,serif" font-size="14.00"> </text>
<text text-anchor="start" x="1136.5" y="-108.8" font-family="Times New Roman,serif" font-size="14.00"> Готов к подъему краба </text>
</g>
<!-- pushing_in_crab_cycle&#45;&gt;ready_to_lifting_bottom_frame -->
<g id="edge17" class="edge">
<title>pushing_in_crab_cycle&#45;&gt;ready_to_lifting_bottom_frame</title>
<path fill="none" stroke="blue" d="M1145.09,-187.8C1157.1,-175.36 1173.49,-158.36 1186.86,-144.5"/>
<polygon fill="blue" stroke="blue" points="1189.51,-146.8 1193.93,-137.18 1184.47,-141.94 1189.51,-146.8"/>
<text text-anchor="middle" x="1179.5" y="-158.8" font-family="Times New Roman,serif" font-size="14.00"> &#160;&#160;</text>
</g>
<!-- landing_bottom_frame_to_pins&#45;&gt;on_pins_support -->
<g id="edge24" class="edge">
<title>landing_bottom_frame_to_pins&#45;&gt;on_pins_support</title>
<path fill="none" stroke="blue" d="M583.73,-221.59C509.45,-234.54 425.5,-256.92 425.5,-292 425.5,-555 425.5,-555 425.5,-555 425.5,-574.25 425.5,-595.95 425.5,-612.6"/>
<polygon fill="blue" stroke="blue" points="422,-612.74 425.5,-622.74 429,-612.74 422,-612.74"/>
<text text-anchor="middle" x="431.5" y="-419.8" font-family="Times New Roman,serif" font-size="14.00"> &#160;&#160;</text>
</g>
<!-- pushing_out_crab_cycle -->
<g id="node16" class="node">
<title>pushing_out_crab_cycle</title>
<path fill="none" stroke="black" d="M1038.5,-43C1038.5,-43 882.5,-43 882.5,-43 876.5,-43 870.5,-37 870.5,-31 870.5,-31 870.5,-19 870.5,-19 870.5,-13 876.5,-7 882.5,-7 882.5,-7 1038.5,-7 1038.5,-7 1044.5,-7 1050.5,-13 1050.5,-19 1050.5,-19 1050.5,-31 1050.5,-31 1050.5,-37 1044.5,-43 1038.5,-43"/>
<text text-anchor="start" x="878.5" y="-28.8" font-family="Times New Roman,serif" font-size="14.00"> </text>
<text text-anchor="start" x="882.5" y="-28.8" font-family="Times New Roman,serif" font-weight="bold" font-size="14.00"> pushing_out_crab_cycle </text>
<text text-anchor="start" x="1038.5" y="-28.8" font-family="Times New Roman,serif" font-size="14.00"> </text>
<text text-anchor="start" x="887" y="-14.8" font-family="Times New Roman,serif" font-size="14.00"> Выдвижение лап краба </text>
</g>
<!-- ready_to_lifting_bottom_frame&#45;&gt;pushing_out_crab_cycle -->
<g id="edge18" class="edge">
<title>ready_to_lifting_bottom_frame&#45;&gt;pushing_out_crab_cycle</title>
<path fill="none" stroke="black" d="M1110.58,-100.93C1091.28,-96.19 1071.49,-90.28 1053.5,-83 1031.83,-74.23 1009.42,-60.66 992.04,-48.96"/>
<polygon fill="black" stroke="black" points="993.66,-45.82 983.44,-43.05 989.69,-51.59 993.66,-45.82"/>
<text text-anchor="middle" x="1094" y="-71.8" font-family="Times New Roman,serif" font-size="14.00"> pushoutCrab </text>
</g>
<!-- lifting_up_bottom_frame_cycle -->
<g id="node17" class="node">
<title>lifting_up_bottom_frame_cycle</title>
<path fill="none" stroke="black" d="M1278.5,-50C1278.5,-50 1080.5,-50 1080.5,-50 1074.5,-50 1068.5,-44 1068.5,-38 1068.5,-38 1068.5,-12 1068.5,-12 1068.5,-6 1074.5,0 1080.5,0 1080.5,0 1278.5,0 1278.5,0 1284.5,0 1290.5,-6 1290.5,-12 1290.5,-12 1290.5,-38 1290.5,-38 1290.5,-44 1284.5,-50 1278.5,-50"/>
<text text-anchor="start" x="1076.5" y="-35.8" font-family="Times New Roman,serif" font-size="14.00"> </text>
<text text-anchor="start" x="1080.5" y="-35.8" font-family="Times New Roman,serif" font-weight="bold" font-size="14.00"> lifting_up_bottom_frame_cycle </text>
<text text-anchor="start" x="1278.5" y="-35.8" font-family="Times New Roman,serif" font-size="14.00"> </text>
<text text-anchor="start" x="1126.5" y="-21.8" font-family="Times New Roman,serif" font-size="14.00"> Подъем краба на</text>
<text text-anchor="start" x="1135.5" y="-7.8" font-family="Times New Roman,serif" font-size="14.00"> одну ступень </text>
</g>
<!-- ready_to_lifting_bottom_frame&#45;&gt;lifting_up_bottom_frame_cycle -->
<g id="edge19" class="edge">
<title>ready_to_lifting_bottom_frame&#45;&gt;lifting_up_bottom_frame_cycle</title>
<path fill="none" stroke="black" d="M1159.87,-100.83C1152.56,-96.18 1146,-90.33 1141.5,-83 1136.51,-74.88 1138.37,-66.25 1143.28,-58.24"/>
<polygon fill="black" stroke="black" points="1146.15,-60.25 1149.34,-50.15 1140.55,-56.05 1146.15,-60.25"/>
<text text-anchor="middle" x="1200" y="-71.8" font-family="Times New Roman,serif" font-size="14.00"> liftUpBottomFrame </text>
</g>
<!-- lifting_down_bottom_frame_cycle -->
<g id="node18" class="node">
<title>lifting_down_bottom_frame_cycle</title>
<path fill="none" stroke="black" d="M1536.5,-43C1536.5,-43 1320.5,-43 1320.5,-43 1314.5,-43 1308.5,-37 1308.5,-31 1308.5,-31 1308.5,-19 1308.5,-19 1308.5,-13 1314.5,-7 1320.5,-7 1320.5,-7 1536.5,-7 1536.5,-7 1542.5,-7 1548.5,-13 1548.5,-19 1548.5,-19 1548.5,-31 1548.5,-31 1548.5,-37 1542.5,-43 1536.5,-43"/>
<text text-anchor="start" x="1316.5" y="-28.8" font-family="Times New Roman,serif" font-size="14.00"> </text>
<text text-anchor="start" x="1320.5" y="-28.8" font-family="Times New Roman,serif" font-weight="bold" font-size="14.00"> lifting_down_bottom_frame_cycle </text>
<text text-anchor="start" x="1536.5" y="-28.8" font-family="Times New Roman,serif" font-size="14.00"> </text>
<text text-anchor="start" x="1336.5" y="-14.8" font-family="Times New Roman,serif" font-size="14.00"> Спуск краба на одну ступень </text>
</g>
<!-- ready_to_lifting_bottom_frame&#45;&gt;lifting_down_bottom_frame_cycle -->
<g id="edge20" class="edge">
<title>ready_to_lifting_bottom_frame&#45;&gt;lifting_down_bottom_frame_cycle</title>
<path fill="none" stroke="black" d="M1322.29,-102.03C1339.01,-97.25 1355.62,-91.05 1370.5,-83 1385.23,-75.03 1398.76,-62.21 1409.04,-50.74"/>
<polygon fill="black" stroke="black" points="1411.75,-52.96 1415.62,-43.09 1406.44,-48.39 1411.75,-52.96"/>
<text text-anchor="middle" x="1456" y="-71.8" font-family="Times New Roman,serif" font-size="14.00"> liftDownBottomFrame </text>
</g>
<!-- pushing_out_crab_cycle&#45;&gt;on_external_support -->
<g id="edge21" class="edge">
<title>pushing_out_crab_cycle&#45;&gt;on_external_support</title>
<path fill="none" stroke="blue" d="M965.23,-43.25C977.63,-88.41 1011.11,-210.42 1026.09,-264.98"/>
<polygon fill="blue" stroke="blue" points="1022.8,-266.24 1028.82,-274.96 1029.55,-264.39 1022.8,-266.24"/>
<text text-anchor="middle" x="1005.5" y="-158.8" font-family="Times New Roman,serif" font-size="14.00"> &#160;&#160;</text>
</g>
<!-- lifting_up_bottom_frame_cycle&#45;&gt;ready_to_lifting_bottom_frame -->
<g id="edge22" class="edge">
<title>lifting_up_bottom_frame_cycle&#45;&gt;ready_to_lifting_bottom_frame</title>
<path fill="none" stroke="blue" d="M1241.74,-50.03C1248.39,-55.01 1254.26,-60.94 1258.5,-68 1264.15,-77.4 1259.69,-86.44 1251.62,-94.19"/>
<polygon fill="blue" stroke="blue" points="1248.9,-91.88 1243.36,-100.91 1253.33,-97.31 1248.9,-91.88"/>
<text text-anchor="middle" x="1266.5" y="-71.8" font-family="Times New Roman,serif" font-size="14.00"> &#160;&#160;</text>
</g>
<!-- lifting_down_bottom_frame_cycle&#45;&gt;ready_to_lifting_bottom_frame -->
<g id="edge23" class="edge">
<title>lifting_down_bottom_frame_cycle&#45;&gt;ready_to_lifting_bottom_frame</title>
<path fill="none" stroke="blue" d="M1387.85,-43.15C1351.82,-58.36 1299.09,-80.62 1260.48,-96.91"/>
<polygon fill="blue" stroke="blue" points="1258.85,-93.8 1250.99,-100.91 1261.57,-100.25 1258.85,-93.8"/>
<text text-anchor="middle" x="1331.5" y="-71.8" font-family="Times New Roman,serif" font-size="14.00"> &#160;&#160;</text>
</g>
</g>
</svg>
